<svg width="10" height="10" viewBox="0 0 10 10" fill="none" xmlns="http://www.w3.org/2000/svg">
<path d="M9.06858 9.84052L0.159481 0.932393C-0.0531602 0.71975 -0.0531602 0.374068 0.159481 0.161425C0.372121 -0.0512187 0.717799 -0.0512187 0.930439 0.161425L9.83845 9.06955C10.0511 9.28219 10.0511 9.62787 9.83845 9.84052C9.6269 10.0532 9.28122 10.0532 9.06858 9.84052Z" fill="black" fill-opacity="0.25"/>
<path d="M9.84052 0.931542L0.932508 9.83967C0.719868 10.0523 0.37419 10.0523 0.16155 9.83967C-0.0510912 9.62703 -0.0510912 9.28134 0.16155 9.0687L9.06956 0.159483C9.2822 -0.0531609 9.62788 -0.0531609 9.84052 0.159483C10.0532 0.373217 10.0532 0.717808 9.84052 0.931542Z" fill="black" fill-opacity="0.25"/>
</svg>
