<svg width="15" height="15" viewBox="0 0 15 15" fill="none" xmlns="http://www.w3.org/2000/svg">
<path d="M12.698 13.7786L0.223307 1.30553C-0.0744356 1.00779 -0.0744356 0.523768 0.223307 0.226026C0.521049 -0.0717161 1.00507 -0.0717161 1.30281 0.226026L13.7759 12.6991C14.0737 12.9969 14.0737 13.4809 13.7759 13.7786C13.4797 14.0764 12.9957 14.0764 12.698 13.7786Z" fill="black"/>
<path d="M13.7788 1.30434L1.30571 13.7775C1.00797 14.0752 0.523946 14.0752 0.226204 13.7775C-0.0715386 13.4797 -0.0715386 12.9957 0.226204 12.698L12.6993 0.223307C12.9971 -0.0744356 13.4811 -0.0744356 13.7788 0.223307C14.0766 0.522576 14.0766 1.00507 13.7788 1.30434Z" fill="black"/>
</svg>
