<svg width="16" height="16" viewBox="0 0 16 16" fill="none" xmlns="http://www.w3.org/2000/svg">
<path d="M8 16L1.29962 8.51019C-0.433208 6.57359 -0.433208 3.42189 1.29962 1.48528C2.15547 0.526792 3.29811 0 4.51774 0C5.73736 0 6.88 0.526792 7.73585 1.48377L8 1.77962L8.26415 1.48528C9.12 0.526792 10.2626 0 11.4823 0C12.7019 0 13.8445 0.526792 14.7004 1.48377C16.4332 3.42038 16.4332 6.57208 14.7004 8.50868L8 16ZM4.51774 0.892075C3.56226 0.892075 2.66113 1.3117 1.97887 2.07396C0.537358 3.68604 0.537358 6.30792 1.97887 7.91849L8 14.6491L14.0211 7.91849C15.4626 6.30641 15.4626 3.68453 14.0211 2.07396C13.3389 1.3117 12.4377 0.892075 11.4823 0.892075C10.5268 0.892075 9.62566 1.3117 8.9434 2.07396L8 3.12906L7.0566 2.07396C6.37434 1.3117 5.47321 0.892075 4.51774 0.892075Z" fill="black"/>
</svg>
