<svg width="13" height="15" viewBox="0 0 13 15" fill="none" xmlns="http://www.w3.org/2000/svg">
<path d="M10.1337 1.11285L10.1337 5.00593C9.37892 5.20149 8.81739 5.88235 8.81739 6.69749C8.81739 7.51263 9.37892 8.19349 10.1337 8.38905L10.1337 14.2251C10.1337 14.4664 10.3295 14.6621 10.5708 14.6621C10.8121 14.6621 11.0079 14.4664 11.0079 14.2251L11.0079 8.38905C11.7627 8.19349 12.3242 7.51263 12.3242 6.69749C12.3242 5.88235 11.7627 5.20149 11.0079 5.00593L11.0079 1.11285C11.0079 0.871554 10.8121 0.675781 10.5708 0.675781C10.3295 0.675781 10.1337 0.871554 10.1337 1.11285ZM11.4501 6.69749C11.4501 7.18237 11.0557 7.57676 10.5708 7.57676C10.0859 7.57676 9.69153 7.18237 9.69153 6.69749C9.69153 6.21261 10.0859 5.81822 10.5708 5.81822C11.0557 5.81822 11.4501 6.21261 11.4501 6.69749Z" fill="black" fill-opacity="0.25"/>
<path d="M10.209 5.29634L10.4337 5.23811L10.4337 5.00593L10.4337 1.11285C10.4337 1.03724 10.4952 0.975781 10.5708 0.975781C10.6464 0.975781 10.7079 1.03724 10.7079 1.11285L10.7079 5.00593L10.7079 5.23811L10.9326 5.29634C11.5605 5.45901 12.0242 6.02454 12.0242 6.69749C12.0242 7.37044 11.5605 7.93597 10.9326 8.09864L10.7079 8.15687L10.7079 8.38905L10.7079 14.2251C10.7079 14.3007 10.6464 14.3621 10.5708 14.3621C10.4952 14.3621 10.4337 14.3007 10.4337 14.2251L10.4337 8.38905L10.4337 8.15687L10.209 8.09864C9.58111 7.93597 9.11739 7.37044 9.11739 6.69749C9.11739 6.02454 9.58111 5.45901 10.209 5.29634ZM10.5708 7.87676C11.2214 7.87676 11.7501 7.34806 11.7501 6.69749C11.7501 6.04693 11.2214 5.51822 10.5708 5.51822C9.92024 5.51822 9.39153 6.04693 9.39153 6.69749C9.39153 7.34806 9.92024 7.87676 10.5708 7.87676Z" stroke="white" stroke-opacity="0.25" stroke-width="0.6"/>
<path d="M6.76178 14.2251L6.76178 13.2891C7.5166 13.0935 8.07813 12.4126 8.07813 11.5975C8.07813 10.7824 7.5166 10.1015 6.76178 9.90593L6.76178 1.11285C6.76178 0.871554 6.56601 0.675781 6.32471 0.675781C6.08341 0.675781 5.88764 0.871554 5.88764 1.11285L5.88764 9.90593C5.13282 10.1015 4.57129 10.7824 4.57129 11.5975C4.57129 12.4126 5.13282 13.0935 5.88764 13.2891L5.88764 14.2251C5.88764 14.4664 6.08341 14.6621 6.32471 14.6621C6.56601 14.6621 6.76178 14.4664 6.76178 14.2251ZM5.44544 11.5975C5.44544 11.1126 5.83983 10.7182 6.32471 10.7182C6.80959 10.7182 7.20398 11.1126 7.20398 11.5975C7.20398 12.0824 6.80959 12.4768 6.32471 12.4768C5.83983 12.4768 5.44544 12.0824 5.44544 11.5975Z" fill="black" fill-opacity="0.25"/>
<path d="M6.68654 12.9986L6.46178 13.0569L6.46178 13.2891L6.46178 14.2251C6.46178 14.3007 6.40033 14.3621 6.32471 14.3621C6.24909 14.3621 6.18764 14.3007 6.18764 14.2251L6.18764 13.2891L6.18764 13.0569L5.96288 12.9986C5.33502 12.836 4.87129 12.2704 4.87129 11.5975C4.87129 10.9245 5.33502 10.359 5.96288 10.1963L6.18764 10.1381L6.18764 9.90593L6.18764 1.11285C6.18764 1.03724 6.24909 0.975781 6.32471 0.975781C6.40032 0.975781 6.46178 1.03724 6.46178 1.11285L6.46178 9.90593L6.46178 10.1381L6.68654 10.1963C7.3144 10.359 7.77813 10.9245 7.77813 11.5975C7.77813 12.2704 7.3144 12.836 6.68654 12.9986ZM6.32471 10.4182C5.67415 10.4182 5.14544 10.9469 5.14544 11.5975C5.14544 12.2481 5.67415 12.7768 6.32471 12.7768C6.97527 12.7768 7.50398 12.2481 7.50398 11.5975C7.50398 10.9469 6.97527 10.4182 6.32471 10.4182Z" stroke="white" stroke-opacity="0.25" stroke-width="0.6"/>
<path d="M2.51569 14.2251L2.51569 5.7564C3.2705 5.56088 3.83203 4.88005 3.83203 4.06538C3.83203 3.25024 3.2705 2.56937 2.51569 2.37382L2.51569 1.11285C2.51569 0.871554 2.31992 0.675781 2.07862 0.675781C1.83731 0.675781 1.64154 0.871554 1.64154 1.11285L1.64154 2.37382C0.88673 2.56938 0.3252 3.25024 0.3252 4.06538C0.3252 4.88005 0.88673 5.56088 1.64154 5.7564L1.64154 14.2251C1.64154 14.4664 1.83731 14.6621 2.07862 14.6621C2.31992 14.6621 2.51569 14.4664 2.51569 14.2251ZM1.19935 4.06538C1.19935 3.5805 1.59374 3.18611 2.07862 3.18611C2.56349 3.18611 2.95788 3.5805 2.95788 4.06538C2.95788 4.54969 2.56349 4.94408 2.07862 4.94408C1.59374 4.94408 1.19935 4.54969 1.19935 4.06538Z" fill="black" fill-opacity="0.25"/>
<path d="M2.44046 5.46599L2.21569 5.52421L2.21569 5.7564L2.21569 14.2251C2.21569 14.3007 2.15423 14.3621 2.07862 14.3621C2.003 14.3621 1.94154 14.3007 1.94154 14.2251L1.94154 5.7564L1.94154 5.52421L1.71677 5.46599C1.08887 5.30334 0.6252 4.73781 0.6252 4.06538C0.6252 3.39243 1.08892 2.82689 1.71678 2.66423L1.94154 2.606L1.94154 2.37382L1.94154 1.11285C1.94154 1.03724 2.003 0.975781 2.07862 0.975781C2.15423 0.975781 2.21569 1.03724 2.21569 1.11285L2.21569 2.37382L2.21569 2.606L2.44045 2.66423C3.06831 2.82689 3.53203 3.39243 3.53203 4.06538C3.53203 4.73781 3.06836 5.30334 2.44046 5.46599ZM2.07862 2.88611C1.42805 2.88611 0.899347 3.41481 0.899347 4.06538C0.899347 4.7155 1.42818 5.24408 2.07862 5.24408C2.72905 5.24408 3.25788 4.7155 3.25788 4.06538C3.25788 3.41481 2.72918 2.88611 2.07862 2.88611Z" stroke="white" stroke-opacity="0.25" stroke-width="0.6"/>
</svg>
