<svg width="16" height="16" viewBox="0 0 16 16" fill="none" xmlns="http://www.w3.org/2000/svg">
<path d="M14.7097 1.32258C13.871 0.451613 12.6774 0 11.3226 0H4.67742C1.87097 0 0 1.87097 0 4.67742V11.2903C0 12.6774 0.451613 13.871 1.35484 14.7419C2.22581 15.5806 3.3871 16 4.70968 16H11.2903C12.6774 16 13.8387 15.5484 14.6774 14.7419C15.5484 13.9032 16 12.7097 16 11.3226V4.67742C16 3.32258 15.5484 2.16129 14.7097 1.32258ZM8 12.0968C5.70968 12.0968 3.87097 10.2581 3.87097 7.96774C3.87097 5.67742 5.74194 3.83871 8 3.83871C10.2581 3.83871 12.129 5.70968 12.129 7.96774C12.129 10.2258 10.2903 12.0968 8 12.0968ZM12.2903 4.67742C11.7742 4.67742 11.3548 4.25806 11.3548 3.74194C11.3548 3.22581 11.7742 2.80645 12.2903 2.80645C12.8065 2.80645 13.2258 3.22581 13.2258 3.74194C13.2258 4.25806 12.8065 4.67742 12.2903 4.67742Z" fill="#DADADA"/>
<path d="M7.99987 10.6129C9.46075 10.6129 10.645 9.42862 10.645 7.96774C10.645 6.50686 9.46075 5.32258 7.99987 5.32258C6.53899 5.32258 5.35471 6.50686 5.35471 7.96774C5.35471 9.42862 6.53899 10.6129 7.99987 10.6129Z" fill="#DADADA"/>
</svg>
