<svg width="18" height="18" viewBox="0 0 18 18" fill="none" xmlns="http://www.w3.org/2000/svg">
<g filter="url(#filter0_b)">
<circle cx="9" cy="9" r="9" fill="black" fill-opacity="0.25"/>
</g>
<g clip-path="url(#clip0)">
<path d="M13.1548 5.84601C12.0292 4.72039 10.1969 4.72039 9.0713 5.84601L9.00119 5.91612L8.93109 5.84601C8.38461 5.30033 7.65889 5 6.88776 5C6.11663 5 5.3909 5.30033 4.84601 5.84601C4.30033 6.3909 4 7.11663 4 7.88776C4 8.65889 4.30033 9.38461 4.84601 9.9295L5.9095 10.993L6.23054 11.3148L6.95786 12.0421L8.9996 14.0839L13.154 9.9295C13.6997 9.38381 14 8.65889 14 7.88776C14 7.11663 13.6997 6.3909 13.1548 5.84601Z" fill="white"/>
</g>
<defs>
<filter id="filter0_b" x="-50" y="-50" width="118" height="118" filterUnits="userSpaceOnUse" color-interpolation-filters="sRGB">
<feFlood flood-opacity="0" result="BackgroundImageFix"/>
<feGaussianBlur in="BackgroundImage" stdDeviation="25"/>
<feComposite in2="SourceAlpha" operator="in" result="effect1_backgroundBlur"/>
<feBlend mode="normal" in="SourceGraphic" in2="effect1_backgroundBlur" result="shape"/>
</filter>
<clipPath id="clip0">
<rect width="10" height="9.08388" fill="white" transform="translate(4 5)"/>
</clipPath>
</defs>
</svg>
