<svg width="200" height="15" viewBox="0 0 200 15" fill="none" xmlns="http://www.w3.org/2000/svg">
<path d="M43.1987 10.8443C42.6849 11.4021 41.9754 11.6762 41.0652 11.6762C40.3948 11.6762 39.8272 11.5489 39.3574 11.2896C38.8877 11.0302 38.5109 10.6877 38.2222 10.257C37.9335 9.82639 37.7182 9.34192 37.5861 8.80852C37.4539 8.27022 37.3854 7.71724 37.3854 7.14958C37.3854 6.55745 37.4539 5.98001 37.5861 5.42213C37.7182 4.86426 37.9286 4.37 38.2222 3.93447C38.5109 3.49894 38.8926 3.15149 39.3574 2.89213C39.8272 2.63277 40.3948 2.50553 41.0652 2.50553C41.4322 2.50553 41.7845 2.56426 42.1173 2.6866C42.45 2.80894 42.7534 2.97532 43.0176 3.19064C43.2819 3.40596 43.5021 3.65554 43.6831 3.93937C43.8593 4.2232 43.9718 4.53639 44.0257 4.87894H46.9078C46.8197 4.09596 46.6044 3.40107 46.2619 2.79426C45.9194 2.18745 45.4888 1.67851 44.9652 1.26745C44.4416 0.856384 43.8446 0.543192 43.184 0.327873C42.5136 0.10766 41.809 0 41.0652 0C40.0278 0 39.0981 0.181064 38.2711 0.548086C37.4442 0.915107 36.7444 1.41915 36.1768 2.06511C35.6092 2.71107 35.1737 3.46468 34.8703 4.33086C34.5669 5.19703 34.4152 6.1366 34.4152 7.14469C34.4152 8.12831 34.5669 9.04831 34.8703 9.90469C35.1737 10.7562 35.6092 11.5 36.1768 12.1313C36.7444 12.7626 37.4442 13.2617 38.2711 13.619C39.0981 13.9811 40.0327 14.1572 41.0652 14.1572C41.902 14.1572 42.6653 14.03 43.3602 13.7804C44.055 13.526 44.6618 13.159 45.1805 12.6794C45.6992 12.1998 46.1151 11.6175 46.4332 10.9372C46.7512 10.257 46.947 9.48873 47.0204 8.64214H44.1382C44.0208 9.55724 43.7076 10.2913 43.1987 10.8443Z" fill="black"/>
<path d="M52.0215 0H49.0464V14.1817H58.6177V11.6811H52.0215V0Z" fill="black"/>
<path d="M71.247 2.06511C70.6794 1.41915 69.9845 0.915107 69.1625 0.548086C68.3404 0.181064 67.4058 0 66.3537 0C65.3163 0 64.3866 0.181064 63.5596 0.548086C62.7327 0.915107 62.0329 1.41915 61.4653 2.06511C60.8977 2.71107 60.4622 3.46468 60.1588 4.33086C59.8554 5.19703 59.7037 6.1366 59.7037 7.14469C59.7037 8.12831 59.8554 9.04831 60.1588 9.90469C60.4622 10.7562 60.8977 11.5 61.4653 12.1313C62.0329 12.7626 62.7327 13.2617 63.5596 13.619C64.3866 13.9811 65.3212 14.1572 66.3537 14.1572C67.4009 14.1572 68.3355 13.9762 69.1576 13.619C69.9796 13.2568 70.6745 12.7626 71.2421 12.1313C71.8097 11.5 72.2452 10.7562 72.5486 9.90469C72.852 9.0532 73.0037 8.1332 73.0037 7.14469C73.0037 6.13171 72.852 5.19703 72.5486 4.33086C72.2501 3.46468 71.8146 2.71107 71.247 2.06511ZM69.8328 8.80852C69.7007 9.34682 69.4903 9.83129 69.1967 10.257C68.908 10.6877 68.5263 11.0302 68.0615 11.2896C67.5917 11.5489 67.0241 11.6762 66.3537 11.6762C65.6833 11.6762 65.1157 11.5489 64.6459 11.2896C64.1762 11.0302 63.7994 10.6877 63.5107 10.257C63.222 9.82639 63.0067 9.34192 62.8746 8.80852C62.7424 8.27022 62.6739 7.71724 62.6739 7.14958C62.6739 6.55745 62.7424 5.98001 62.8746 5.42213C63.0067 4.86426 63.2171 4.37 63.5107 3.93447C63.7994 3.49894 64.1811 3.15149 64.6459 2.89213C65.1157 2.63277 65.6833 2.50553 66.3537 2.50553C67.0241 2.50553 67.5917 2.63766 68.0615 2.89213C68.5312 3.15149 68.908 3.49894 69.1967 3.93447C69.4854 4.37 69.7007 4.86915 69.8328 5.42213C69.965 5.98001 70.0335 6.55256 70.0335 7.14958C70.0335 7.71724 69.965 8.27022 69.8328 8.80852Z" fill="black"/>
<path d="M83.5489 8.74001C83.5489 9.75299 83.3483 10.4919 82.9421 10.9666C82.536 11.4413 81.8069 11.6762 80.745 11.6762C80.1382 11.6762 79.6538 11.593 79.2966 11.4217C78.9345 11.2504 78.6556 11.0302 78.455 10.7562C78.2543 10.4821 78.1222 10.1738 78.0586 9.81661C77.995 9.46426 77.9656 9.10214 77.9656 8.73512V0H74.9905V8.74001C74.9905 10.5849 75.4945 11.9502 76.4976 12.836C77.5008 13.7217 78.9198 14.1621 80.7548 14.1621C82.5604 14.1621 83.9795 13.7168 85.0022 12.8262C86.0249 11.9355 86.5387 10.5751 86.5387 8.74001V0H83.5636V8.74001H83.5489Z" fill="black"/>
<path d="M99.3154 1.66873C98.7673 1.11085 98.1165 0.694894 97.3629 0.415958C96.6094 0.137021 95.7971 0 94.9261 0H89.0883V14.1621H94.9261C95.9634 14.1621 96.8638 13.9909 97.6272 13.6385C98.3905 13.2911 99.0316 12.8115 99.5405 12.2047C100.054 11.5979 100.436 10.8785 100.685 10.0417C100.94 9.2098 101.062 7.9766 101.062 6.98809C101.062 5.86256 100.906 4.58043 100.597 3.74362C100.294 2.92149 99.8634 2.2266 99.3154 1.66873ZM97.8082 9.49852C97.6174 10.0172 97.3678 10.4381 97.0498 10.7611C96.7317 11.0841 96.3745 11.3141 95.9683 11.4511C95.5622 11.5881 95.1463 11.6615 94.7157 11.6615H92.0635V2.50064H94.1872C94.9212 2.50064 95.5377 2.60341 96.0368 2.81383C96.536 3.02426 96.9372 3.32277 97.2406 3.71426C97.544 4.10575 97.7642 4.57554 97.8963 5.12852C98.0284 5.6815 98.0969 6.91958 98.0969 7.60469C98.092 8.34852 97.9991 8.9798 97.8082 9.49852Z" fill="black"/>
<path d="M127.623 9.63065H127.584L124.418 0H120.229V14.1621H123.018V4.03724H123.053L126.37 14.1621H128.665L131.983 3.94426H132.022V14.1621H134.811V0H130.618L127.623 9.63065Z" fill="black"/>
<path d="M148.385 2.06511C147.818 1.41915 147.123 0.915107 146.301 0.548086C145.479 0.181064 144.539 0 143.492 0C142.455 0 141.525 0.181064 140.698 0.548086C139.871 0.915107 139.171 1.41915 138.604 2.06511C138.036 2.71107 137.601 3.46468 137.297 4.33086C136.994 5.19703 136.842 6.1366 136.842 7.14469C136.842 8.12831 136.994 9.04831 137.297 9.90469C137.601 10.7562 138.036 11.5 138.604 12.1313C139.171 12.7626 139.871 13.2617 140.698 13.619C141.525 13.9811 142.46 14.1572 143.492 14.1572C144.539 14.1572 145.474 13.9762 146.296 13.619C147.118 13.2568 147.813 12.7626 148.38 12.1313C148.948 11.5 149.384 10.7562 149.687 9.90469C149.99 9.0532 150.142 8.1332 150.142 7.14469C150.142 6.13171 149.99 5.19703 149.687 4.33086C149.389 3.46468 148.953 2.71107 148.385 2.06511ZM146.971 8.80852C146.839 9.34682 146.629 9.83129 146.335 10.257C146.046 10.6877 145.665 11.0302 145.2 11.2896C144.73 11.5489 144.162 11.6762 143.492 11.6762C142.822 11.6762 142.254 11.5489 141.784 11.2896C141.315 11.0302 140.938 10.6877 140.649 10.257C140.36 9.82639 140.145 9.34192 140.013 8.80852C139.881 8.27022 139.812 7.71724 139.812 7.14958C139.812 6.55745 139.881 5.98001 140.013 5.42213C140.145 4.86426 140.355 4.37 140.649 3.93447C140.938 3.49894 141.319 3.15149 141.784 2.89213C142.254 2.63277 142.822 2.50553 143.492 2.50553C144.162 2.50553 144.73 2.63766 145.2 2.89213C145.67 3.15149 146.046 3.49894 146.335 3.93447C146.624 4.37 146.839 4.86915 146.971 5.42213C147.103 5.98001 147.172 6.55256 147.172 7.14958C147.172 7.71724 147.103 8.27022 146.971 8.80852Z" fill="black"/>
<path d="M163.374 12.3082C163.344 12.0048 163.32 11.7063 163.305 11.4176C163.29 11.1288 163.281 10.8744 163.266 10.659C163.242 10.3165 163.193 9.97884 163.124 9.63628C163.056 9.29373 162.943 8.98054 162.791 8.69671C162.64 8.41288 162.444 8.1682 162.204 7.95777C161.964 7.74734 161.661 7.59564 161.294 7.49288V7.45373C162.052 7.15032 162.6 6.7099 162.933 6.12755C163.266 5.54521 163.437 4.53713 163.437 3.73947C163.437 3.22074 163.344 2.73627 163.163 2.29096C162.977 1.84074 162.713 1.44925 162.366 1.1067C162.018 0.764145 161.602 0.494996 161.113 0.299251C160.628 0.103506 160.08 0.00563399 159.474 0.00563399H152.173V14.1678H155.148V8.56947H158.123C158.867 8.56947 159.405 8.73586 159.733 9.06373C160.061 9.3916 160.276 9.91032 160.379 10.6199C160.452 11.1631 160.511 11.7308 160.55 12.3278C160.589 12.9199 160.687 13.7371 160.854 14.1678H163.829C163.692 13.9769 163.584 13.4435 163.516 13.1744C163.452 12.8954 163.403 12.6116 163.374 12.3082ZM159.948 5.99053C159.606 6.29394 159.097 6.44564 158.412 6.44564H155.153V2.31542H158.412C159.097 2.31542 159.606 2.46223 159.948 2.76074C160.291 3.05925 160.462 3.85691 160.462 4.51266C160.462 5.19777 160.291 5.68713 159.948 5.99053Z" fill="black"/>
<path d="M175.553 0H164.46V2.50064H168.516V14.1817H171.496V2.50064H175.553V0Z" fill="black"/>
<path d="M179.003 0L173.914 14.1621H176.908L178 10.8443H183.059L184.053 14.1621H187.145L182.056 0H179.003ZM178.778 8.62746L180.485 3.33745H180.525L182.286 8.62746H178.778Z" fill="black"/>
<path d="M199.697 13.4729C199.628 13.1988 199.574 12.6116 199.545 12.3082C199.516 12.0048 199.491 11.7063 199.476 11.4176C199.462 11.1288 199.452 10.8744 199.437 10.659C199.413 10.3165 199.364 9.97884 199.295 9.63628C199.227 9.29373 199.114 8.98054 198.963 8.69671C198.811 8.41288 198.615 8.1682 198.375 7.95777C198.136 7.74734 197.832 7.59564 197.465 7.49288V7.45373C198.224 7.15032 198.772 6.7099 199.105 6.12755C199.437 5.54521 199.609 4.53713 199.609 3.73947C199.609 3.22074 199.516 2.73627 199.335 2.29096C199.149 1.84074 198.884 1.44925 198.537 1.1067C198.189 0.764145 197.774 0.494996 197.284 0.299251C196.8 0.103506 196.252 0.00563399 195.645 0.00563399H188.344V14.1678H191.319V8.56947H194.294C195.038 8.56947 195.576 8.73586 195.904 9.06373C196.232 9.3916 196.447 9.91032 196.55 10.6199C196.624 11.1631 196.682 11.7308 196.721 12.3278C196.761 12.9199 196.859 13.7371 197.025 14.1678H200C199.873 13.9769 199.765 13.742 199.697 13.4729ZM196.124 5.99053C195.782 6.29394 195.273 6.44564 194.588 6.44564H191.329V2.31542H194.588C195.273 2.31542 195.782 2.46223 196.124 2.76074C196.467 3.05925 196.638 3.53393 196.638 4.19457C196.633 4.87479 196.462 5.68713 196.124 5.99053Z" fill="black"/>
<path d="M6.29333 4.72221H7.86898C8.30448 4.72221 8.6568 4.36987 8.6568 3.93434C8.6568 3.49881 8.30448 3.14646 7.86898 3.14646H6.29333C5.85783 3.14646 5.50551 3.49881 5.50551 3.93434C5.50551 4.36987 5.86272 4.72221 6.29333 4.72221Z" fill="black"/>
<path d="M1.57633 11.0151H3.15198C3.58748 11.0151 3.9398 10.6628 3.9398 10.2273C3.9398 9.79173 3.58748 9.43939 3.15198 9.43939H1.57633C1.14083 9.43939 0.78851 9.79173 0.78851 10.2273C0.78851 10.6628 1.14083 11.0151 1.57633 11.0151Z" fill="black"/>
<path d="M4.7226 7.86868H8.65682C9.09232 7.86868 9.44464 7.51634 9.44464 7.0808C9.44464 6.64527 9.09232 6.29293 8.65682 6.29293H4.7226C4.28709 6.29293 3.93477 6.64527 3.93477 7.0808C3.93477 7.51634 4.28709 7.86868 4.7226 7.86868Z" fill="black"/>
<path d="M22.593 2.92149C21.7905 2.77958 21.0124 2.81383 20.2882 2.98511C19.0111 1.17936 16.902 0 14.519 0C14.4016 0 14.2841 0.00489362 14.1667 0.00978724V0H11.8472C11.4558 0 11.0937 0.269149 11.0301 0.655745C10.9518 1.15 11.3286 1.57575 11.8081 1.57575H13.3397C13.7312 1.57575 14.0933 1.8449 14.1569 2.23149C14.2352 2.72575 13.8584 3.15149 13.3789 3.15149H11.0594C10.668 3.15149 10.3059 3.42064 10.2422 3.80724C10.164 4.30149 10.5407 4.72724 11.0203 4.72724H13.3397C13.7312 4.72724 14.0933 4.99639 14.1569 5.38298C14.2352 5.87724 13.8584 6.30299 13.3789 6.30299H11.0154C10.5799 6.30299 10.2276 6.65533 10.2276 7.09086V8.6666C10.2276 9.10214 9.87525 9.45448 9.43974 9.45448H6.28845C5.85295 9.45448 5.50063 9.80682 5.50063 10.2424V11.8132C5.50063 12.2487 5.14831 12.6011 4.71281 12.6011H0.827521C0.436056 12.6011 0.0739516 12.8702 0.0103386 13.2568C-0.0679543 13.7511 0.30883 14.1768 0.788375 14.1768H21.5996C24.7558 14.1768 27.3052 11.5979 27.2661 8.43171C27.2269 5.74022 25.2353 3.39128 22.593 2.92149Z" fill="black"/>
<path d="M111.735 1.39931H109.224V6.07272H104.546V8.58314H109.224V13.2614H111.735V8.58314H116.408V6.07272H111.735V1.39931Z" fill="black"/>
</svg>
