<svg width="16" height="16" viewBox="0 0 16 16" fill="none" xmlns="http://www.w3.org/2000/svg">
<path d="M13.2303 12.1762C13.2303 13.5847 12.0883 14.7267 10.6798 14.7267H3.82506C2.41663 14.7267 1.2746 13.5847 1.2746 12.1762V5.32018C1.2746 3.91175 2.41663 2.76971 3.82506 2.76971H5.86441C6.2162 2.76971 6.50171 2.4842 6.50171 2.13242C6.50171 1.78063 6.2162 1.49512 5.86441 1.49512H3.82506C1.71178 1.49512 0 3.20817 0 5.32018V12.175C0 14.287 1.71178 16 3.82506 16H10.6798C12.7918 16 14.5049 14.287 14.5049 12.175V10.156C14.5049 9.80421 14.2194 9.5187 13.8676 9.5187C13.5158 9.5187 13.2303 9.80421 13.2303 10.156V12.1762Z" fill="#0C0C0C"/>
<path d="M12.166 7.66797C14.2835 7.66797 16 5.95143 16 3.83398C16 1.71653 14.2835 0 12.166 0C10.0486 0 8.33203 1.71653 8.33203 3.83398C8.33203 5.95143 10.0486 7.66797 12.166 7.66797Z" fill="#FF3E3E"/>
</svg>
