<svg width="17" height="16" viewBox="0 0 17 16" fill="none" xmlns="http://www.w3.org/2000/svg">
<path d="M8.43376 0C4.01572 0 0.433594 3.58115 0.433594 8.00016C0.433594 11.2756 2.40334 14.0897 5.222 15.3272C5.19958 14.7681 5.2181 14.0982 5.36137 13.4903C5.51504 12.8405 6.39059 9.13107 6.39059 9.13107C6.39059 9.13107 6.13491 8.62036 6.13491 7.86534C6.13491 6.68018 6.82203 5.79488 7.67776 5.79488C8.40549 5.79488 8.75701 6.34133 8.75701 6.99531C8.75701 7.72694 8.29016 8.82081 8.0504 9.83411C7.85027 10.683 8.47599 11.3753 9.31321 11.3753C10.8288 11.3753 11.8499 9.42866 11.8499 7.12201C11.8499 5.36864 10.6689 4.05612 8.52115 4.05612C6.0943 4.05612 4.58263 5.8657 4.58263 7.8871C4.58263 8.5843 4.78828 9.07551 5.11024 9.45627C5.25806 9.63073 5.27885 9.70123 5.22524 9.90168C5.18691 10.0489 5.09887 10.4036 5.06248 10.544C5.0092 10.747 4.84514 10.8195 4.6619 10.7444C3.54432 10.2883 3.02353 9.06414 3.02353 7.68795C3.02353 5.41574 4.94 2.69065 8.74109 2.69065C11.795 2.69065 13.8053 4.90113 13.8053 7.27373C13.8053 10.4114 12.061 12.7561 9.48929 12.7561C8.62543 12.7561 7.81291 12.2889 7.53481 11.7593C7.53481 11.7593 7.07024 13.6027 6.97212 13.9581C6.80254 14.5754 6.47018 15.1917 6.16675 15.6719C6.88635 15.8843 7.64625 16 8.43408 16C12.8518 16 16.4336 12.4189 16.4336 8.00049C16.4333 3.58115 12.8511 0 8.43376 0Z" fill="black"/>
</svg>
