<svg width="16" height="16" viewBox="0 0 16 16" fill="none" xmlns="http://www.w3.org/2000/svg">
<path d="M16 16H15.0943V14.7925C15.0943 12.9615 13.6045 11.4717 11.7736 11.4717H4.22642C2.39547 11.4717 0.90566 12.9615 0.90566 14.7925V16H0V14.7925C0 12.4619 1.89585 10.566 4.22642 10.566H11.7736C14.1042 10.566 16 12.4619 16 14.7925V16Z" fill="black" fill-opacity="0.25"/>
<path d="M8 8.45283C5.66943 8.45283 3.77358 6.55698 3.77358 4.22642C3.77358 1.89585 5.66943 0 8 0C10.3306 0 12.2264 1.89585 12.2264 4.22642C12.2264 6.55698 10.3306 8.45283 8 8.45283ZM8 0.90566C6.16906 0.90566 4.67924 2.39547 4.67924 4.22642C4.67924 6.05736 6.16906 7.54717 8 7.54717C9.83094 7.54717 11.3208 6.05736 11.3208 4.22642C11.3208 2.39547 9.83094 0.90566 8 0.90566Z" fill="black" fill-opacity="0.25"/>
</svg>
