<svg width="16" height="16" viewBox="0 0 16 16" fill="none" xmlns="http://www.w3.org/2000/svg">
<path d="M15.8071 14.8799L11.6327 10.7055C12.6386 9.47661 13.2091 7.87661 13.1028 6.14546C12.9048 2.93759 10.3566 0.312021 7.1553 0.0261189C3.07005 -0.33716 -0.33716 3.07005 0.0261189 7.1553C0.312021 10.3566 2.93759 12.9048 6.14546 13.1015C7.87661 13.2078 9.47661 12.6386 10.7055 11.6314L14.8812 15.8071C15.1369 16.0628 15.5527 16.0628 15.8084 15.8071C16.0641 15.5514 16.0641 15.1369 15.8071 14.8799ZM6.55727 11.8032C3.66415 11.8032 1.31136 9.45038 1.31136 6.55726C1.31136 3.66415 3.66415 1.31136 6.55727 1.31136C9.45038 1.31136 11.8032 3.66415 11.8032 6.55726C11.8032 9.45038 9.45038 11.8032 6.55727 11.8032Z" fill="#0C0C0C" fill-opacity="0.25"/>
</svg>
