<svg width="16" height="16" viewBox="0 0 16 16" fill="none" xmlns="http://www.w3.org/2000/svg">
<path d="M16 15.354L11.4808 10.8347C12.4815 9.68453 13.0898 8.18415 13.0898 6.54491C13.0898 2.93585 10.154 0 6.54491 0C2.93585 0 0 2.93585 0 6.54491C0 10.154 2.93585 13.0898 6.54491 13.0898C8.18566 13.0898 9.68604 12.4815 10.8347 11.4808L15.354 16L16 15.354ZM6.54491 12.1766C3.44 12.1766 0.913208 9.64981 0.913208 6.54491C0.913208 3.44 3.44 0.913208 6.54491 0.913208C9.64981 0.913208 12.1766 3.44 12.1766 6.54491C12.1766 9.64981 9.64981 12.1766 6.54491 12.1766Z" fill="black"/>
</svg>
