<svg width="21" height="16" viewBox="0 0 21 16" fill="none" xmlns="http://www.w3.org/2000/svg">
<path d="M20.0961 1.89583C19.3711 2.21667 18.5961 2.43333 17.7794 2.53333C18.6128 2.03333 19.2544 1.24167 19.5544 0.3C18.7753 0.7625 17.9128 1.1 16.9919 1.27917C16.2544 0.491667 15.2044 0 14.0461 0C11.8169 0 10.0128 1.80833 10.0128 4.0375C10.0128 4.35417 10.0461 4.6625 10.1169 4.95833C6.76276 4.79167 3.78776 3.18333 1.80026 0.7375C1.45443 1.33333 1.25443 2.02917 1.25443 2.76667C1.25443 4.16667 1.96693 5.40417 3.05026 6.12917C2.38776 6.1125 1.76276 5.92917 1.22109 5.625C1.22109 5.64167 1.22109 5.65833 1.22109 5.675C1.22109 7.63333 2.61276 9.2625 4.45859 9.63333C4.12109 9.725 3.76276 9.775 3.39609 9.775C3.13776 9.775 2.88359 9.75 2.63776 9.7C3.15026 11.3042 4.64193 12.4708 6.40859 12.5042C5.02943 13.5875 3.28776 14.2333 1.39609 14.2333C1.07109 14.2333 0.75026 14.2125 0.433594 14.175C2.21693 15.3333 4.33776 16 6.61276 16C14.0378 16 18.0961 9.84583 18.0961 4.50833C18.0961 4.33333 18.0919 4.15833 18.0836 3.9875C18.8711 3.41667 19.5544 2.70417 20.0961 1.89583Z" fill="#DADADA"/>
</svg>
